<?xml version="1.0" encoding="UTF-8"?>
<svg version="1.1" xmlns="http://www.w3.org/2000/svg" width="1024" height="1024">
<path d="M0 0 C337.92 0 675.84 0 1024 0 C1024 337.92 1024 675.84 1024 1024 C686.08 1024 348.16 1024 0 1024 C0 686.08 0 348.16 0 0 Z " fill="#253055" transform="translate(0,0)"/>
<path d="M0 0 C7.60837567 3.5581207 13.96364601 10.7445309 20.06860352 16.37133789 C22.67722429 18.71504936 25.34835755 20.92185629 28.08813477 23.10961914 C34.14343586 27.99208573 39.75007686 33.31168408 45.40844727 38.64086914 C49.13478754 42.1489552 52.94310713 45.54007307 56.83813477 48.85961914 C58.61934624 50.37817831 60.40005704 51.89731268 62.1796875 53.41772461 C63.42368852 54.47982808 64.66922235 55.54013964 65.91650391 56.59838867 C69.01829803 59.2427255 72.00547833 61.92178981 74.83813477 64.85961914 C70.92304629 74.48613079 60.92803458 81.22527783 51.86547852 85.23852539 C43.80142292 89.5566971 37.53213607 96.83253949 31.83813477 103.85961914 C27.14135274 102.41245568 24.160463 99.64899088 20.71313477 96.29711914 C15.79368427 91.6293387 10.74155163 87.25310157 5.45141602 83.00415039 C2.83965853 80.86086959 0.33448175 78.63581584 -2.16186523 76.35961914 C-5.4817601 73.33679493 -8.85950635 70.43449753 -12.34936523 67.60961914 C-22.55181132 59.34636139 -32.38997909 50.62518639 -42.16186523 41.85961914 C-33.31814215 31.29628323 -23.80219374 21.34389121 -14.1574707 11.51419067 C-13.16126921 10.49536487 -12.16938177 9.4723027 -11.18188477 8.44503784 C-9.78125304 6.99056507 -8.36249825 5.55361135 -6.94311523 4.11743164 C-6.11875977 3.27325684 -5.2944043 2.42908203 -4.44506836 1.55932617 C-2.16186523 -0.14038086 -2.16186523 -0.14038086 0 0 Z " fill="#FCFCFC" transform="translate(394.161865234375,643.140380859375)"/>
<path d="M0 0 C3.8117768 0.56637953 5.54818073 2.17819588 8.23022461 4.8737793 C9.05465561 5.6952092 9.87908661 6.5166391 10.72850037 7.36296082 C11.61086868 8.25767593 12.493237 9.15239105 13.40234375 10.07421875 C14.31705948 10.99080765 15.23177521 11.90739655 16.17420959 12.85176086 C18.11122905 14.79338133 20.04323978 16.7398027 21.97143555 18.69018555 C24.4302483 21.17716154 26.89754188 23.65549245 29.36823177 26.13066387 C31.73692827 28.50454784 34.10092093 30.88308048 36.46484375 33.26171875 C37.34518784 34.14631271 38.22553192 35.03090668 39.1325531 35.94230652 C43.29513109 40.15320854 47.3108398 44.36667212 51 49 C49.57303689 53.57782964 47.25538036 56.03107885 43.8125 59.3125 C39.9313186 63.07330049 36.2284553 66.90013549 32.7109375 71.00390625 C26.72784584 77.98417985 20.45060487 84.70934299 14.1875 91.4375 C13.54103516 92.13617187 12.89457031 92.83484375 12.22851562 93.5546875 C11.30135742 94.54662109 11.30135742 94.54662109 10.35546875 95.55859375 C9.53018677 96.44502563 9.53018677 96.44502563 8.68823242 97.34936523 C7 99 7 99 3 102 C-13.5 85.5 -30 69 -47 52 C-45.39273353 48.78546706 -44.62096151 47.37778545 -42.20703125 45.046875 C-41.39032959 44.24757568 -41.39032959 44.24757568 -40.55712891 43.43212891 C-39.98140137 42.87702637 -39.40567383 42.32192383 -38.8125 41.75 C-34.53431903 37.55614124 -30.4199701 33.32695987 -26.5390625 28.7578125 C-24.9305945 26.92072976 -23.24161132 25.21092213 -21.5 23.5 C-18.52099026 20.56712537 -15.77136506 17.49747045 -13.04296875 14.33203125 C-8.78644832 9.47324981 -4.37754205 4.74959354 0 0 Z " fill="#FCFCFC" transform="translate(726,600)"/>
<path d="M0 0 C8.07999634 5.03069836 13.64248252 12.44130315 16.453125 21.52734375 C18.30178793 32.7918632 16.26105005 42.6250448 10.32421875 52.3828125 C4.35339973 60.47566476 -5.9292111 64.87112973 -15.546875 66.52734375 C-27.0156123 67.61705243 -36.16156421 64.276819 -45.32421875 57.4375 C-52.456602 51.30791229 -56.9385445 43.28165372 -57.9296875 33.90625 C-58.25979222 22.9797837 -56.46193229 15.66311111 -49.421875 7.27734375 C-35.64553474 -7.15717422 -17.33234129 -9.17125421 0 0 Z " fill="#FBFBFC" transform="translate(489.546875,735.47265625)"/>
<path d="M0 0 C2.04415541 1.44154312 3.83889684 2.95811125 5.65234375 4.6796875 C6.59207031 5.55947266 6.59207031 5.55947266 7.55078125 6.45703125 C13.94615565 13.05479092 16.80778241 20.58694638 17.08984375 29.7421875 C16.65374255 41.33646434 12.29229796 49.70630031 4.078125 57.78125 C-5.07236602 64.94250384 -16.11019305 66.50858363 -27.34765625 65.6796875 C-37.30504357 63.56326459 -45.75994256 57.59931588 -52.0625 49.6640625 C-57.97870249 40.52901428 -58.91185442 29.79800526 -56.875 19.2265625 C-53.6645226 9.46055939 -45.72964482 1.97267704 -36.78125 -2.64453125 C-24.73148391 -7.64334251 -11.34829463 -6.38223558 0 0 Z " fill="#FBFBFC" transform="translate(306.34765625,294.3203125)"/>
<path d="M0 0 C6.84890109 5.50382633 12.13491506 13.35278802 14 22 C15.0597229 33.05372504 12.72814071 42.57574082 5.61328125 51.2265625 C-0.91801037 58.406239 -8.47298038 63.18412255 -18.3125 64.4140625 C-29.39889808 64.70168132 -39.19620915 61.86494621 -48 55 C-56.4004483 46.35709394 -59.85321779 38.2372658 -60.3125 26.25 C-60.16355926 16.19650005 -56.44447889 9.48829734 -49.578125 2.26953125 C-35.49652682 -10.1265423 -15.30913953 -10.39918127 0 0 Z " fill="#FBFBFC" transform="translate(290,589)"/>
<path d="M0 0 C9.90570044 6.06981347 15.69016567 13.9086776 19 25 C20.63371806 34.9983545 17.76050305 44.19857729 12.30859375 52.609375 C6.86417466 59.38364176 -1.33004769 64.53398988 -10 66 C-23.34920927 66.84646753 -33.31328587 65.80334616 -43.9609375 56.98046875 C-51.70331404 49.4605743 -55.08038313 40.70688675 -55.4375 30.0625 C-55.16923901 20.08319127 -52.13350448 13.2753365 -45.28515625 6.04296875 C-32.19194645 -5.66258463 -15.81234023 -7.15120427 0 0 Z " fill="#FCFCFC" transform="translate(827,386)"/>
<path d="M0 0 C0.74435303 0.00757324 1.48870605 0.01514648 2.25561523 0.02294922 C13.24125709 0.34867867 21.69614634 4.46619889 29.46875 12.1328125 C36.43720577 19.75029111 38.13928137 28.17202061 38.02734375 38.30859375 C37.31922427 46.29737828 33.41227902 53.79857058 27.75 59.4375 C17.2120937 67.61930474 7.97824068 69.59350776 -5.25 68.4375 C-15.08338822 66.32129403 -22.98590831 61.08944832 -28.6875 52.8125 C-33.42410724 45.33648744 -35.2288917 37.23373811 -34.25 28.4375 C-31.62931737 17.92481882 -26.78543722 10.60668525 -17.69140625 4.76171875 C-11.62866178 1.47328615 -6.82112438 -0.0976772 0 0 Z " fill="#FBFBFC" transform="translate(580.25,187.5625)"/>
<path d="M0 0 C2.27804565 1.55651855 2.27804565 1.55651855 4.44482422 3.76367188 C5.67542068 4.99494812 5.67542068 4.99494812 6.93087769 6.25109863 C7.79673492 7.14792358 8.66259216 8.04474854 9.5546875 8.96875 C10.45623566 9.87878784 11.35778381 10.78882568 12.28665161 11.72644043 C14.67731047 14.13995147 17.04940092 16.5709335 19.41802979 19.00604248 C21.84061371 21.49012722 24.28038369 23.95720413 26.71875 26.42578125 C31.49514966 31.26834609 36.25401677 36.12763172 41 41 C40.04785033 42.28044872 39.09418839 43.559773 38.13989258 44.83862305 C37.60898514 45.55116745 37.0780777 46.26371185 36.53108215 46.99784851 C34.70175296 49.39000896 32.73784447 51.60770397 30.6875 53.8125 C27.62126197 57.16349646 24.70375377 60.57174432 21.875 64.125 C15.67974432 71.80004937 8.80283091 78.86611144 2 86 C-7.27658031 83.92735581 -14.52350959 73.56361808 -21 67 C-23.2488303 64.74446678 -25.4988195 62.4912452 -27.7734375 60.26171875 C-31.51032865 56.58862818 -35.00089459 52.76881033 -38.421875 48.80078125 C-40.19649815 46.7757781 -42.05776935 44.86454143 -44 43 C-42.38390814 39.07653999 -39.68686751 36.28582175 -36.8125 33.25 C-35.81304794 32.17908874 -34.81434968 31.10747348 -33.81640625 30.03515625 C-33.33187988 29.5158252 -32.84735352 28.99649414 -32.34814453 28.46142578 C-30.60600186 26.57289517 -28.92422308 24.63631092 -27.25 22.6875 C-24.55317276 19.57330663 -21.69983861 16.67826848 -18.76171875 13.79296875 C-16.86447176 11.86206771 -15.08556668 9.85776455 -13.3125 7.8125 C-12.73242188 7.14863281 -12.15234375 6.48476563 -11.5546875 5.80078125 C-10.33055033 4.38287362 -9.12958879 2.94495611 -7.9375 1.5 C-5.17717071 -0.63702913 -3.42539262 -0.35698076 0 0 Z " fill="#FCFCFC" transform="translate(650,341)"/>
<path d="M0 0 C1.58333191 0.00502903 3.16666537 0.00958943 4.75 0.01367188 C8.5834047 0.02369647 12.41658702 0.04329025 16.25 0.0625 C15.59 5.3425 14.93 10.6225 14.25 16.0625 C12.47846558 16.11410278 12.47846558 16.11410278 10.67114258 16.16674805 C-12.85040919 16.88638316 -35.70916595 17.95658168 -58.75 23.0625 C-59.65959473 23.25714844 -60.56918945 23.45179688 -61.50634766 23.65234375 C-88.84351739 29.59186742 -115.07354858 39.98410013 -139.75 53.0625 C-140.8342627 53.63653564 -140.8342627 53.63653564 -141.94042969 54.22216797 C-161.34781088 64.5769449 -178.85006107 76.99030676 -195.75 91.0625 C-199.52794749 89.3545529 -201.1983655 87.3317817 -203.75 84.0625 C-205.87603185 82.29926495 -205.87603185 82.29926495 -207.75 81.0625 C-206.38548184 77.90022916 -204.96016323 76.1388462 -202.25 74.03125 C-201.18036011 73.19533325 -201.18036011 73.19533325 -200.08911133 72.3425293 C-199.31720459 71.75511963 -198.54529785 71.16770996 -197.75 70.5625 C-196.54863403 69.63981323 -196.54863403 69.63981323 -195.32299805 68.69848633 C-187.05712919 62.4209486 -178.50514572 56.63171117 -169.75 51.0625 C-169.14188477 50.67288086 -168.53376953 50.28326172 -167.90722656 49.88183594 C-147.08049856 36.63907051 -124.89870017 26.5061282 -101.75 18.0625 C-100.89325684 17.74700195 -100.03651367 17.43150391 -99.15380859 17.10644531 C-81.26367487 10.58935195 -62.75344517 6.38344791 -44 3.25 C-42.7634668 3.0430249 -41.52693359 2.8360498 -40.25292969 2.62280273 C-26.76382693 0.45758112 -13.62392629 -0.07603918 0 0 Z " fill="#F9F9FA" transform="translate(521.75,207.9375)"/>
<path d="M0 0 C3.68069887 1.53643852 5.98775204 3.78150945 8.75 6.625 C9.94882812 7.85089844 9.94882812 7.85089844 11.171875 9.1015625 C11.77515625 9.72804688 12.3784375 10.35453125 13 11 C3.5114499 34.15412497 -46.0925262 54.79446143 -67.5234375 63.80078125 C-72.77293218 65.94542523 -78.05419442 67.99886444 -83.359375 70.00146484 C-85.52917071 70.82195897 -87.6880332 71.66306116 -89.84375 72.51953125 C-105.47370179 78.4945735 -122.70598233 82.48561767 -139.25 85.0625 C-140.22453125 85.21847656 -141.1990625 85.37445312 -142.203125 85.53515625 C-154.08752089 86.99013887 -165.86234205 87.12558979 -177.8125 87.0625 C-179.48762886 87.05747056 -181.16275919 87.05291023 -182.83789062 87.04882812 C-186.89196439 87.03794708 -190.94596531 87.02076371 -195 87 C-194.68806536 85.27073126 -194.37542638 83.54158956 -194.0625 81.8125 C-193.88847656 80.84957031 -193.71445312 79.88664063 -193.53515625 78.89453125 C-193.0476265 76.25760028 -192.53328895 73.6280095 -192 71 C-190.84274414 70.94054199 -190.84274414 70.94054199 -189.66210938 70.87988281 C-174.38816789 70.06629146 -159.18641756 68.97150335 -144 67.125 C-142.72189453 66.97579102 -141.44378906 66.82658203 -140.12695312 66.67285156 C-131.12752122 65.52742673 -122.70092944 63.49721445 -114 61 C-112.57754731 60.6196761 -111.15452992 60.2414437 -109.73046875 59.8671875 C-91.48394301 54.7573556 -73.49551591 47.94197555 -56.79589844 38.95898438 C-54.95127136 37.9739796 -53.0917043 37.02364161 -51.2265625 36.078125 C-42.02374025 31.36607174 -33.47186914 25.91565963 -25 20 C-24.03320312 19.33097656 -23.06640625 18.66195312 -22.0703125 17.97265625 C-14.42900509 12.55729491 -6.64022864 6.64022864 0 0 Z " fill="#FAFAFB" transform="translate(709,698)"/>
<path d="M0 0 C3.54243452 1.36591169 6.92627929 2.90931484 10.3125 4.625 C11.19550781 5.07101562 12.07851563 5.51703125 12.98828125 5.9765625 C13.65214844 6.31429688 14.31601562 6.65203125 15 7 C14.75878418 7.52730713 14.51756836 8.05461426 14.26904297 8.59790039 C3.4714555 32.25452629 -5.46158818 55.54894641 -11 81 C-11.15597656 81.69270996 -11.31195313 82.38541992 -11.47265625 83.09912109 C-15.45203435 100.93910331 -16.76937917 119.75152127 -16 138 C-15.96422852 138.9187793 -15.92845703 139.83755859 -15.89160156 140.78417969 C-14.91699626 162.78749509 -11.54542126 184.92100404 -3.82910156 205.63671875 C-2.49298231 209.23078986 -1.68918564 212.15182222 -2 216 C-3.76915475 216.98219627 -5.54038569 217.96065359 -7.3125 218.9375 C-8.29863281 219.48277344 -9.28476563 220.02804687 -10.30078125 220.58984375 C-13 222 -13 222 -16 223 C-23.6348471 204.34606507 -28.51011669 184.98973099 -31 165 C-31.10296387 164.22640137 -31.20592773 163.45280273 -31.31201172 162.65576172 C-38.49871675 107.3533285 -27.56408562 49.99038669 -1 1 C-0.67 0.67 -0.34 0.34 0 0 Z " fill="#F9F9FB" transform="translate(251,360)"/>
<path d="M0 0 C7.03018745 2.05761584 11.86650773 10.48690047 16.24609375 15.93359375 C18.42235421 18.57960351 20.67823459 21.10668303 23 23.625 C28.24414865 29.36947379 32.89670415 35.53543267 37.5625 41.75 C35.93772135 45.55325282 33.42967143 48.46875755 30.75 51.5625 C30.26644043 52.12582031 29.78288086 52.68914062 29.28466797 53.26953125 C28.24764582 54.47624794 27.20885307 55.68144488 26.16845703 56.88525391 C24.56951439 58.74185529 22.984777 60.60978739 21.40234375 62.48046875 C15.41152049 69.52441279 9.24628889 76.268948 2.61181641 82.71484375 C-0.279637 85.4491972 -0.279637 85.4491972 -2.4375 88.75 C-3.0975 88.75 -3.7575 88.75 -4.4375 88.75 C-5.83349396 87.22162731 -7.15337649 85.62349901 -8.4375 84 C-9.24832031 82.98421875 -10.05914062 81.9684375 -10.89453125 80.921875 C-11.31686035 80.39142578 -11.73918945 79.86097656 -12.17431641 79.31445312 C-14.10908786 76.9182383 -16.12432846 74.59128173 -18.125 72.25 C-22.56544557 66.92984352 -26.74711642 61.44059004 -30.875 55.875 C-31.47852295 55.06611328 -32.0820459 54.25722656 -32.70385742 53.42382812 C-35.71168953 49.33130851 -38.35703598 45.3881671 -40.4375 40.75 C-38.70863227 38.87472365 -36.97944441 36.99974444 -35.25 35.125 C-34.71479736 34.54468018 -34.17959473 33.96436035 -33.62817383 33.36645508 C-30.75642735 30.25473675 -27.87960496 27.14796836 -24.9921875 24.05078125 C-23.86977426 22.84637039 -22.7473782 21.64194351 -21.625 20.4375 C-21.07553711 19.84831787 -20.52607422 19.25913574 -19.95996094 18.65209961 C-17.0750563 15.5486814 -14.25109071 12.41124506 -11.5 9.1875 C-4.77860169 1.47033898 -4.77860169 1.47033898 0 0 Z " fill="#FCFCFC" transform="translate(428.4375,417.25)"/>
<path d="M0 0 C14.70001052 2.17226876 29.17145324 10.8434971 42.00683594 17.90722656 C43.68545277 18.82754613 45.37654831 19.72505217 47.0703125 20.6171875 C59.2998193 27.07874781 71.01901233 34.59729232 82 43 C82.79156494 43.60448975 82.79156494 43.60448975 83.59912109 44.22119141 C87.77843897 47.42465241 91.90255094 50.69261156 96 54 C96.81694336 54.65597168 96.81694336 54.65597168 97.65039062 55.32519531 C105.82230577 61.94079046 113.35585888 69.15484268 120.8125 76.5625 C121.68398682 77.42472168 122.55547363 78.28694336 123.45336914 79.17529297 C129.38950729 85.14023361 134.78352164 91.39986464 140 98 C140.48283447 98.60320068 140.96566895 99.20640137 141.46313477 99.82788086 C150.4378629 111.09717124 158.65435903 122.9338246 166.125 135.25 C166.69263062 136.17981689 166.69263062 136.17981689 167.27172852 137.12841797 C168.99727618 140.02830226 170.45185957 142.64471618 171 146 C166 147.66666667 161 149.33333333 156 151 C155.33355469 149.88625 154.66710937 148.7725 153.98046875 147.625 C145.19581566 133.03809802 136.07327163 118.97102035 125 106 C124.12258866 104.93841584 123.24634217 103.87586814 122.37109375 102.8125 C111.19292044 89.35413431 98.92118399 76.63242106 85 66 C83.72713567 64.99962469 82.45506151 63.9982435 81.18359375 62.99609375 C55.50612054 42.89715154 26.91895525 25.74151804 -4 15 C-3.52229477 13.06213915 -3.04278429 11.12472326 -2.5625 9.1875 C-2.29566406 8.10855469 -2.02882813 7.02960938 -1.75390625 5.91796875 C-1.23922588 3.9259157 -0.65062825 1.95188476 0 0 Z " fill="#FAFAFB" transform="translate(627,227)"/>
<path d="M0 0 C1.79598318 1.65992385 3.5433101 3.3733972 5.25 5.125 C6.14203125 6.03507813 7.0340625 6.94515625 7.953125 7.8828125 C8.96632813 8.93082031 8.96632813 8.93082031 10 10 C7.34234204 12.65765796 4.3886929 13.27347147 0.875 14.3125 C-0.59769323 14.76029506 -2.07034853 15.2082149 -3.54296875 15.65625 C-4.29239746 15.88183594 -5.04182617 16.10742188 -5.81396484 16.33984375 C-9.02816796 17.31049432 -12.2328432 18.31083325 -15.4375 19.3125 C-16.07244385 19.51077393 -16.7073877 19.70904785 -17.36157227 19.91333008 C-30.52715516 24.03359101 -43.69278039 28.17204282 -56.75 32.625 C-62.49544096 34.56166549 -68.28862796 36.24070957 -74.125 37.875 C-82.09730945 40.10946098 -89.94686815 42.59397324 -97.78515625 45.2578125 C-104.69383011 47.59456983 -111.64660773 49.756429 -118.625 51.875 C-127.82150507 54.67009679 -136.95376049 57.61867437 -146.0625 60.6875 C-161.29615882 65.80062162 -161.29615882 65.80062162 -168.9375 68.125 C-169.61111572 68.33729248 -170.28473145 68.54958496 -170.97875977 68.76831055 C-174.33578858 69.76401331 -176.72711767 70.40266386 -180 69 C-181.63075768 68.08764981 -183.23366401 67.12451507 -184.8125 66.125 C-188.78778547 63.67504629 -192.65646435 61.69964438 -197 60 C-196 58 -196 58 -194.01318359 57.2097168 C-193.15031738 56.95875244 -192.28745117 56.70778809 -191.3984375 56.44921875 C-189.96153564 56.02346558 -189.96153564 56.02346558 -188.49560547 55.58911133 C-187.46580566 55.29157959 -186.43600586 54.99404785 -185.375 54.6875 C-183.25995506 54.06145321 -181.14537093 53.43384755 -179.03125 52.8046875 C-177.99613281 52.49756836 -176.96101563 52.19044922 -175.89453125 51.87402344 C-170.99441061 50.39439861 -166.15688246 48.74634631 -161.30859375 47.10546875 C-157.15312542 45.71704191 -152.96887031 44.43861817 -148.77734375 43.1640625 C-143.84081014 41.64277293 -138.92084752 40.0711687 -134 38.5 C-128.02993462 36.59382838 -122.05854346 34.69827156 -116.0625 32.875 C-111.51678643 31.48817213 -107.00451656 30.01441516 -102.5 28.5 C-94.05916353 25.66787021 -85.58457829 22.99948961 -77.01171875 20.59375 C-67.93831265 18.04632424 -59.00904629 15.40702527 -50.1640625 12.14453125 C-44.8399714 10.21865632 -39.42389052 8.61855781 -34 7 C-32.36319197 6.5081095 -30.72648011 6.01589891 -29.08984375 5.5234375 C-19.92069824 2.76658448 -19.92069824 2.76658448 -16.47509766 1.75341797 C-14.74124032 1.22563303 -13.01737759 0.66439666 -11.30224609 0.07861328 C-10.42262207 -0.21416504 -9.54299805 -0.50694336 -8.63671875 -0.80859375 C-7.84354248 -1.08372803 -7.05036621 -1.3588623 -6.2331543 -1.64233398 C-3.42308096 -2.09240039 -2.35368784 -1.53872535 0 0 Z " fill="#F9F9FA" transform="translate(675,660)"/>
<path d="M0 0 C13.65836565 27.3167313 -1.13729249 84.93608642 -10.10546875 112.38330078 C-18.16523636 136.15262333 -27.92767073 159.1094404 -42 180 C-46 176 -50 172 -54 168 C-52.60323491 164.31526434 -50.94309363 160.90828135 -49.05859375 157.44921875 C-41.54236246 143.45124373 -35.04566697 129.59084118 -29.87255859 114.52539062 C-29.1183135 112.34242722 -28.3306589 110.17788362 -27.51953125 108.015625 C-23.4163227 96.65289364 -21.08668548 84.8762108 -19 73 C-18.83193848 72.04915527 -18.66387695 71.09831055 -18.49072266 70.11865234 C-14.6874429 47.31079746 -15.71216951 24.03529564 -16 1 C-14.58492518 0.8321739 -13.16948669 0.66741272 -11.75390625 0.50390625 C-10.9657251 0.41181885 -10.17754395 0.31973145 -9.36547852 0.22485352 C-6.22302942 -0.07385591 -3.154368 -0.06711421 0 0 Z " fill="#F9F9FA" transform="translate(825,462)"/>
<path d="M0 0 C2.64091635 8.36679692 5.23663451 16.74511568 7.74609375 25.15234375 C11.10731609 36.38336158 14.5201959 47.59844324 17.9375 58.8125 C18.52542918 60.7428268 19.11331986 62.67316533 19.70117188 64.60351562 C22.10341959 72.49138225 24.50582318 80.37920057 26.91040039 88.26635742 C27.534027 90.31298521 28.15764385 92.35961598 28.78125 94.40625 C29.06632919 95.34076492 29.35140839 96.27527985 29.64512634 97.2381134 C31.72953448 104.08094404 33.7597696 110.93849017 35.765625 117.8046875 C36.84914236 121.50293084 37.96123965 125.19211121 39.07739258 128.88061523 C41.91688396 138.27422988 44.66568943 147.69309635 47.375 157.125 C47.73311768 158.36548096 48.09123535 159.60596191 48.46020508 160.8840332 C48.79044678 162.03863037 49.12068848 163.19322754 49.4609375 164.3828125 C49.75790527 165.41809082 50.05487305 166.45336914 50.36083984 167.52001953 C51 170 51 170 51 172 C49.390625 173.3671875 49.390625 173.3671875 47.25 174.875 C44.82565509 176.62258431 42.74667413 178.25332587 40.625 180.375 C40.08875 180.91125 39.5525 181.4475 39 182 C38.34 182 37.68 182 37 182 C36.39069891 179.96899638 35.78140144 177.93799168 35.17211914 175.90698242 C34.63230233 174.10764817 34.0924242 172.30833231 33.55249023 170.5090332 C32.20417347 166.01555248 30.85655792 161.5218666 29.51171875 157.02734375 C22.58443758 133.79855607 22.58443758 133.79855607 15.3215332 110.67358398 C12.33554917 101.43195927 9.62938852 92.15863137 7.13305664 82.77294922 C5.38185947 76.24228378 3.34574543 69.88228435 1.14453125 63.48828125 C-0.41977789 58.72060868 -1.64472156 53.88421892 -2.8984375 49.02734375 C-4.12775235 44.4052588 -5.59746871 39.8642409 -7.0625 35.3125 C-13.82006984 14.18453556 -13.82006984 14.18453556 -12 10 C-9.78515625 7.421875 -9.78515625 7.421875 -7.0625 4.75 C-6.16660156 3.85796875 -5.27070312 2.9659375 -4.34765625 2.046875 C-2 0 -2 0 0 0 Z " fill="#F8F9FA" transform="translate(671,422)"/>
<path d="M0 0 C3.69801681 3.59789 7.0747409 7.3495031 10.375 11.3125 C11.34585458 12.46916951 12.31720774 13.62542073 13.2890625 14.78125 C13.75473633 15.33554687 14.22041016 15.88984375 14.70019531 16.4609375 C16.89691115 19.06200749 19.13906571 21.62175244 21.39453125 24.171875 C22.50950067 25.44147521 23.61013736 26.72374914 24.69921875 28.015625 C28.14979755 32.07877847 31.73188886 35.67149934 35.8046875 39.109375 C37.34415899 40.43518318 38.84697125 41.80419492 40.3203125 43.203125 C65.42533884 67.00299707 97.18873213 83.17998558 129 96 C128.34 101.61 127.68 107.22 127 113 C119.41505053 110.88456455 112.3199557 108.19025866 105.125 105 C104.03509766 104.51724609 102.94519531 104.03449219 101.82226562 103.53710938 C61.38060595 85.33482122 23.13779084 57.32398394 -4 22 C-6.37711018 19.13081287 -8.76413711 16.27010741 -11.15234375 13.41015625 C-12.75674224 11.31731509 -13.93613161 9.40066637 -15 7 C-14.33613281 6.74605469 -13.67226563 6.49210938 -12.98828125 6.23046875 C-8.42732859 4.45269596 -4.0946559 2.7297706 0 0 Z " fill="#FAFAFB" transform="translate(293,655)"/>
<path d="M0 0 C2.578125 2.21484375 2.578125 2.21484375 5.25 4.9375 C6.14203125 5.83339844 7.0340625 6.72929687 7.953125 7.65234375 C10 10 10 10 10 12 C8.97382568 12.3904248 7.94765137 12.78084961 6.89038086 13.18310547 C-13.8715849 21.08334182 -34.62856045 28.9965728 -55.375 36.9375 C-56.82227982 37.49118759 -56.82227982 37.49118759 -58.29879761 38.05606079 C-69.40242259 42.30477944 -80.49725173 46.5750798 -91.578125 50.8828125 C-93.62059996 51.67587681 -95.66308035 52.46892716 -97.70556641 53.26196289 C-101.57426334 54.76430463 -105.44078083 56.27208504 -109.30615234 57.78295898 C-111.05038431 58.46095851 -112.79468392 59.13878403 -114.5390625 59.81640625 C-115.32637756 60.12591217 -116.11369263 60.43541809 -116.92486572 60.75430298 C-120.59903205 62.1767651 -124.08258392 63.40176195 -128 64 C-129.29623379 62.42040347 -130.58681327 60.83616587 -131.875 59.25 C-132.59429687 58.36828125 -133.31359375 57.4865625 -134.0546875 56.578125 C-135.69562089 54.403394 -136.83577329 52.43717498 -138 50 C-137.09733398 49.66186279 -136.19466797 49.32372559 -135.26464844 48.9753418 C-97.38028421 34.82372301 -97.38028421 34.82372301 -59.67895508 20.19506836 C-48.63444832 15.82755472 -37.53688718 11.60069535 -26.4375 7.375 C-25.49129791 7.01453583 -24.54509583 6.65407166 -23.57022095 6.28268433 C-20.87919326 5.25785082 -18.18775353 4.23410957 -15.49609375 3.2109375 C-14.68185944 2.90107407 -13.86762512 2.59121063 -13.02871704 2.2719574 C-11.90159805 1.84415733 -11.90159805 1.84415733 -10.75170898 1.40771484 C-9.76919411 1.03445572 -9.76919411 1.03445572 -8.76683044 0.65365601 C-3.33342485 -1.35648493 -3.33342485 -1.35648493 0 0 Z " fill="#F9F9FA" transform="translate(602,391)"/>
<path d="M0 0 C0.66 0 1.32 0 2 0 C3.515625 1.609375 3.515625 1.609375 5.25 3.75 C8.23889722 7.284042 11.02006918 9.6702844 15 12 C14.25352044 19.60917206 13.45526624 27.21203083 12.625 34.8125 C12.5115625 35.87919922 12.398125 36.94589844 12.28125 38.04492188 C11.53765292 44.82826757 10.64455848 51.57299678 9.65625 58.32421875 C8.31852345 67.49351636 7.13342183 76.67951659 5.9921875 85.875 C5.90597767 86.56910666 5.81976784 87.26321331 5.73094559 87.9783535 C5.10965903 92.98524411 4.49199629 97.99257918 3.875 103 C3.25039604 108.0681271 2.62449006 113.13608735 1.99551773 118.20367432 C1.74750513 120.20704576 1.50176412 122.210698 1.256073 124.21435547 C1.10566559 125.42752441 0.95525818 126.64069336 0.80029297 127.890625 C0.66944305 128.95313477 0.53859314 130.01564453 0.40377808 131.11035156 C0.03234017 133.76855669 -0.44239856 136.37524579 -1 139 C-6.19644079 137.40109514 -11.06612142 135.25861997 -16 133 C-16.1949624 126.08966591 -16.11852865 119.68955448 -14.56640625 112.94921875 C-13.66948941 108.27906553 -13.29492499 103.56183102 -12.83192444 98.83206177 C-12.24892095 93.04112304 -11.50886356 87.29196425 -10.65625 81.53515625 C-8.97069628 69.938064 -7.42287465 58.32406661 -5.89282227 46.70556641 C-5.43613987 43.23967758 -4.97696255 39.77412535 -4.51757812 36.30859375 C-2.91918451 24.21575211 -1.37273016 12.12066752 0 0 Z " fill="#F8F8FA" transform="translate(408,502)"/>
<path d="M0 0 C7.66574287 6.30294414 14.88308884 13.24369952 21.3125 20.8125 C25.19856683 25.37604095 29.48287377 29.53585856 33.76293945 33.72583008 C37.42574305 37.33509445 40.85802427 41.07261847 44.21826172 44.96435547 C47.24044005 48.41720871 50.40621331 51.73264888 53.5625 55.0625 C54.24634766 55.78912842 54.93019531 56.51575684 55.63476562 57.2644043 C59.11780632 60.96453313 62.61805437 64.64564531 66.15234375 68.296875 C66.80066162 68.97355225 67.44897949 69.65022949 68.11694336 70.34741211 C69.34796123 71.63205659 70.58678291 72.90928001 71.83422852 74.17797852 C76 78.54889425 76 78.54889425 76 83 C74.171875 85.39453125 74.171875 85.39453125 71.75 87.8125 C70.96109375 88.62332031 70.1721875 89.43414062 69.359375 90.26953125 C67 92 67 92 64.96484375 92.04296875 C62.28953222 90.62287297 60.76950211 88.80990414 58.8125 86.5 C55.77153531 82.99465154 52.68759405 79.62530596 49.375 76.375 C46.65084407 73.68848353 44.0498724 70.96928883 41.5625 68.0625 C38.84380752 64.8896408 35.97248325 61.93661618 33 59 C29.43599698 55.47893677 26.09695832 51.86813992 22.84375 48.0625 C20.65203687 45.61075311 18.33932896 43.31114427 16 41 C12.46067854 37.50325685 9.14611868 33.92136668 5.921875 30.13671875 C2.64106618 26.48915284 -0.91969985 23.11565021 -4.44921875 19.7109375 C-7.0666593 16.92915535 -8.98059469 14.22537336 -11 11 C-10.45730469 10.54109375 -9.91460937 10.0821875 -9.35546875 9.609375 C-8.64003906 8.99578125 -7.92460937 8.3821875 -7.1875 7.75 C-6.47980469 7.14671875 -5.77210938 6.5434375 -5.04296875 5.921875 C-3.08110329 4.07629602 -1.54330375 2.20054668 0 0 Z " fill="#F9FAFB" transform="translate(327,347)"/>
<path d="M0 0 C0.66 0 1.32 0 2 0 C8.41375987 15.40216916 14.54784729 30.89052623 20.4375 46.5 C20.88491547 47.68521744 20.88491547 47.68521744 21.34136963 48.89437866 C22.99873982 53.28919079 24.64726625 57.68719031 26.28631592 62.08886719 C26.95181209 63.87096042 27.6243164 65.65043222 28.29736328 67.4296875 C28.66458496 68.41195312 29.03180664 69.39421875 29.41015625 70.40625 C29.72218994 71.23447266 30.03422363 72.06269531 30.35571289 72.91601562 C31 75 31 75 31 78 C29.390625 79.53515625 29.390625 79.53515625 27.25 81.0625 C26.55390625 81.56910156 25.8578125 82.07570313 25.140625 82.59765625 C23.14446246 83.90536127 21.14055064 84.95352724 19 86 C18.62415771 84.98728027 18.24831543 83.97456055 17.86108398 82.93115234 C16.05803048 78.07730597 14.24847214 73.22589669 12.4375 68.375 C12.10685547 67.48850769 11.77621094 66.60201538 11.43554688 65.68865967 C7.59534516 55.40488249 3.69662712 45.14929854 -0.37109375 34.953125 C-0.72007217 34.07737823 -1.0690506 33.20163147 -1.42860413 32.29934692 C-3.11186854 28.0818867 -4.80614928 23.86921702 -6.51391602 19.66162109 C-7.12403218 18.14167039 -7.73398597 16.6216545 -8.34375 15.1015625 C-8.62943344 14.40758362 -8.91511688 13.71360474 -9.2094574 12.99859619 C-9.8652489 11.35470365 -10.4410362 9.67928695 -11 8 C-9.66566859 5.33133717 -8.11620897 4.82425634 -5.5 3.4375 C-2.55848713 1.98363365 -2.55848713 1.98363365 0 0 Z " fill="#F9F9FB" transform="translate(612,255)"/>
<path d="M0 0 C6.07238647 0.63132883 11.53260604 2.32859493 17.3125 4.25 C24.25506843 6.51355455 31.19701901 8.67012176 38.25 10.5625 C47.29556801 12.99788454 56.1441364 15.95383415 65 19 C64.34 24.28 63.68 29.56 63 35 C56.22149514 33.76699778 49.92485308 32.10380228 43.4375 29.8125 C34.37841677 26.69887658 25.23961899 24.03654801 16.00390625 21.50097656 C7.60495855 19.19047558 -0.71230562 16.68022307 -9 14 C-7.45158425 10.65291949 -5.50894136 7.75332488 -3.375 4.75 C-2.74335937 3.85796875 -2.11171875 2.9659375 -1.4609375 2.046875 C-0.73777344 1.03367187 -0.73777344 1.03367187 0 0 Z " fill="#F8F9FA" transform="translate(698,384)"/>
<path d="M0 0 C5.07757464 1.7993849 9.63112436 4.49858087 14.3125 7.125 C21.30347439 11.01284105 28.33955113 14.74310929 35.5168457 18.27392578 C41.09916195 21.02513309 46.56819295 23.96187063 52 27 C51.15356901 28.04796218 50.29723808 29.08792692 49.4375 30.125 C48.72400391 30.99511719 48.72400391 30.99511719 47.99609375 31.8828125 C45.20864721 34.83936049 42.11768819 37.39985777 39 40 C23.23533393 31.84409841 7.58101598 23.50136986 -8 15 C-6.36561105 11.70655209 -4.64109805 8.47504861 -2.875 5.25 C-2.33617187 4.26515625 -1.79734375 3.2803125 -1.2421875 2.265625 C-0.83226562 1.51796875 -0.42234375 0.7703125 0 0 Z " fill="#F9F9FA" transform="translate(310,634)"/>
<path d="M0 0 C0.33 0.99 0.66 1.98 1 3 C0.34 3 -0.32 3 -1 3 C-1.20625 3.556875 -1.4125 4.11375 -1.625 4.6875 C-3.55000774 7.92501302 -6.03850902 9.68231141 -9 12 C-9.66 11.67 -10.32 11.34 -11 11 C-7.37 7.37 -3.74 3.74 0 0 Z " fill="#2D395A" transform="translate(438,733)"/>
<path d="M0 0 C0.66 0.33 1.32 0.66 2 1 C1.09515208 2.15518918 0.1755794 3.29885406 -0.75 4.4375 C-1.26046875 5.07558594 -1.7709375 5.71367188 -2.296875 6.37109375 C-4.19667629 8.18810554 -5.43586908 8.60423197 -8 9 C-7.04270084 7.87411986 -6.08412105 6.7493285 -5.125 5.625 C-4.59132813 4.99851562 -4.05765625 4.37203125 -3.5078125 3.7265625 C-2.38567993 2.44163349 -1.20628025 1.20628025 0 0 Z " fill="#434B6B" transform="translate(771,657)"/>
<path d="M0 0 C0.66 0 1.32 0 2 0 C0.55746343 3.36591866 -1.33264727 5.51047079 -4 8 C-4.66 7.67 -5.32 7.34 -6 7 C-5.04882866 5.8274869 -4.08882991 4.66212985 -3.125 3.5 C-2.59132813 2.8503125 -2.05765625 2.200625 -1.5078125 1.53125 C-0.76144531 0.77328125 -0.76144531 0.77328125 0 0 Z " fill="#384367" transform="translate(463,463)"/>
</svg>
